# xmcd
#
# Track frame offsets:
#	150
#	17345
#	35495
#	54401
#	73169
#	95071
#	112010
#	131860
#	154467
#	169036
#
# Disc length: 2511 seconds
# Revision: 0
# Processed by: cddbd v1.5.2PL0 Copyright (c) Steve Scherf et al.
# Submitted via: dBpowerAMP V12.0
#
DISCID=8b09cd0a
DTITLE=Mike Andersen - Echoes
DYEAR=2010
DGENRE=Soul
TTITLE0=Still carry a torch 
TTITLE1=Over you 
TTITLE2=Woman's Gotta Have It 
TTITLE3=Someone Thougened You 
TTITLE4=Evil 
TTITLE5=Thinking of You 
TTITLE6=More of You 
TTITLE7=Games 
TTITLE8=Information Blues 
TTITLE9=Restless to the Bones 
EXTD=
EXTT0=
EXTT1=
EXTT2=
EXTT3=
EXTT4=
EXTT5=
EXTT6=
EXTT7=
EXTT8=
EXTT9=
PLAYORDER=
